<?xml version="1.0" standalone="no"?>
<!DOCTYPE svg PUBLIC "-//W3C//DTD SVG 20010904//EN"
 "http://www.w3.org/TR/2001/REC-SVG-20010904/DTD/svg10.dtd">
<svg version="1.0" xmlns="http://www.w3.org/2000/svg"
 width="1300.000000pt" height="426.000000pt" viewBox="0 0 1300.000000 426.000000"
 preserveAspectRatio="xMidYMid meet">

<g transform="translate(0.000000,426.000000) scale(0.100000,-0.100000)"
fill="#000000" stroke="none">
<path d="M0 2130 l0 -2130 6500 0 6500 0 0 2130 0 2130 -6500 0 -6500 0 0
-2130z m1295 1365 c5 -44 4 -56 -4 -45 -6 9 -11 10 -11 3 0 -6 -3 -20 -6 -30
-5 -15 -4 -15 5 -3 6 9 11 10 11 3 0 -6 -18 -30 -40 -52 -22 -22 -40 -44 -40
-48 0 -5 -14 -17 -31 -27 -29 -17 -31 -17 -44 1 -14 17 -14 17 -15 -7 0 -20
-2 -22 -10 -10 -5 8 -9 38 -9 65 1 44 2 46 9 20 7 -26 8 -24 7 17 0 66 48 131
130 173 15 8 31 11 35 7 4 -4 10 -34 13 -67z m-298 -84 c57 -41 85 -85 91
-141 5 -57 -12 -98 -34 -79 -8 6 -14 8 -14 4 0 -5 -8 -1 -17 8 -10 8 -31 18
-48 22 l-30 7 33 -21 c28 -18 43 -41 26 -41 -17 0 -79 59 -90 87 -28 67 -9
183 31 183 6 0 30 -13 52 -29z m-164 -120 c60 -41 86 -75 108 -140 23 -64 19
-115 -13 -172 -23 -41 -15 -42 -79 16 -34 32 -41 4 -7 -32 44 -46 11 -30 -43
21 -75 73 -93 137 -68 246 11 50 34 90 50 90 6 0 29 -13 52 -29z m605 -12 c31
-10 31 -12 17 -38 -7 -15 -22 -34 -32 -42 -16 -13 -17 -13 -4 4 16 20 11 21
-24 5 -14 -6 -25 -19 -25 -30 0 -12 -7 -18 -21 -18 -11 0 -18 -4 -15 -9 9 -14
-24 -22 -42 -10 -16 10 -16 10 0 5 10 -3 20 -1 23 4 10 16 -32 11 -45 -5 -14
-17 -100 -21 -100 -5 0 19 32 74 54 94 55 49 147 69 214 45z m-314 -131 c-12
-69 -91 -198 -190 -307 -65 -72 -101 -126 -150 -228 -46 -97 -71 -112 -43 -26
11 31 19 62 19 70 0 7 5 13 10 13 6 0 10 5 10 10 0 6 4 16 10 23 72 89 110
144 110 159 0 11 5 16 10 13 6 -3 10 4 10 17 0 19 2 20 10 8 8 -12 16 -8 46
25 66 72 88 113 86 158 -2 31 0 38 8 27 8 -12 10 -9 10 13 0 16 5 26 12 25 7
-2 14 7 16 20 2 12 8 22 13 22 5 0 6 -18 3 -42z m-74 6 c0 -8 -5 -12 -10 -9
-6 4 -8 11 -5 16 9 14 15 11 15 -7z m-445 -44 c122 -70 172 -162 166 -305 -2
-35 -28 -75 -39 -60 -4 6 -27 17 -52 25 -25 7 -49 17 -54 22 -6 4 -16 8 -23 8
-27 0 -11 -18 40 -43 28 -14 46 -26 39 -27 -11 0 -87 38 -145 74 -74 45 -127
261 -82 330 14 22 19 23 58 14 23 -5 64 -22 92 -38z m730 -120 c70 -33 71 -34
46 -67 -13 -15 -25 -27 -27 -25 -10 6 -25 1 -20 -7 3 -5 -1 -14 -9 -21 -13
-11 -14 -10 -9 4 4 10 1 16 -9 16 -8 0 -17 -5 -19 -11 -6 -18 -95 -30 -141
-18 -85 22 -97 22 -97 5 0 -9 -6 -16 -14 -16 -12 0 -12 5 1 33 53 110 189 159
298 107z m-445 -55 c0 -8 -4 -15 -10 -15 -5 0 -7 7 -4 15 4 8 8 15 10 15 2 0
4 -7 4 -15z m333 -183 c51 -23 127 -78 127 -92 0 -12 -71 -80 -83 -80 -5 0 -4
7 3 15 17 21 -8 20 -58 -1 -20 -9 -68 -18 -107 -20 -61 -3 -77 0 -125 24 -30
15 -57 30 -60 33 -3 3 -17 9 -33 13 -23 6 -26 9 -17 26 15 28 72 69 127 91 61
25 159 21 226 -9z m-503 -32 c0 -5 -2 -10 -4 -10 -3 0 -8 5 -11 10 -3 6 -1 10
4 10 6 0 11 -4 11 -10z m160 -100 c0 -13 -11 -13 -30 0 -12 8 -11 10 8 10 12
0 22 -4 22 -10z m10571 -312 l1 -43 11 38 c16 51 32 43 32 -15 -1 -46 7 -60
20 -38 8 13 48 13 43 1 -1 -5 -22 -30 -46 -55 -43 -45 -44 -46 -99 -42 l-55 4
-18 52 c-19 55 -17 85 5 76 8 -3 15 7 19 25 7 35 23 38 36 7 8 -22 9 -22 9 -2
1 24 9 34 28 34 9 0 13 -14 14 -42z m367 -192 c25 -8 42 -42 42 -82 0 -35 22
-25 34 14 12 42 26 41 26 -1 0 -38 -25 -78 -44 -71 -8 3 -18 -7 -26 -26 -14
-34 -73 -90 -95 -90 -9 0 -23 -9 -32 -20 -21 -24 -51 -26 -59 -5 -4 8 -14 15
-23 15 -9 0 -31 9 -48 20 -18 11 -33 15 -33 9 0 -6 9 -13 20 -16 11 -3 20 -9
20 -14 0 -5 7 -9 15 -9 8 0 24 -9 35 -20 27 -27 55 -22 109 18 78 57 130 34
141 -62 3 -33 2 -60 -4 -66 -14 -14 -399 -14 -391 0 3 6 -10 36 -29 68 -43 69
-71 152 -87 253 -14 91 -10 109 29 109 38 0 48 -14 57 -77 7 -51 61 -181 71
-171 2 3 -7 27 -21 53 -42 79 -28 140 39 180 49 29 66 31 66 9 0 -19 29 -12
80 21 l35 22 25 -27 c14 -15 36 -30 48 -34z m-6251 -578 c77 -28 99 -42 159
-103 315 -319 -32 -839 -455 -683 l-54 20 -104 -27 c-57 -15 -105 -26 -108
-24 -2 3 8 50 23 106 l26 101 -22 64 c-59 171 -26 326 95 447 89 88 164 119
295 120 66 1 101 -4 145 -21z m-3431 -213 c-3 -8 -9 -22 -13 -32 -4 -11 -3
-14 5 -9 8 5 12 -1 12 -16 0 -13 -4 -18 -8 -12 -13 19 -37 22 -52 6 -13 -14
-12 -15 3 -9 12 5 17 1 17 -13 0 -17 3 -18 27 -9 21 8 30 6 42 -6 15 -15 14
-17 -1 -26 -10 -6 -18 -17 -18 -26 0 -9 -6 -13 -15 -9 -10 4 -15 -1 -15 -15 0
-19 1 -19 26 -3 l25 17 -4 -51 c-4 -40 -2 -49 9 -45 9 3 14 -3 14 -18 1 -22 2
-22 11 -6 6 10 8 34 5 52 -8 41 7 53 28 23 15 -22 17 -22 45 -5 16 9 36 17 45
17 18 0 22 -16 5 -22 -6 -2 -7 -11 -3 -22 7 -19 8 -19 15 0 7 18 8 18 8 -2 1
-11 8 -29 16 -40 13 -17 14 -17 15 -1 0 9 -4 17 -10 17 -5 0 -10 7 -10 16 0
14 3 14 15 4 8 -7 15 -25 15 -41 0 -18 5 -29 14 -29 7 0 19 -7 26 -15 7 -8 22
-15 35 -15 12 0 22 -6 22 -12 0 -7 4 -21 8 -30 4 -11 3 -18 -4 -18 -6 0 -11
-14 -11 -32 0 -34 -14 -29 -23 7 -4 15 -5 14 -6 -7 0 -15 4 -30 9 -33 6 -3 10
-10 10 -15 0 -11 -67 -33 -79 -26 -5 3 -14 -1 -21 -10 -11 -12 -15 -12 -21 -2
-14 21 -10 27 11 21 16 -4 24 5 44 51 24 53 25 86 5 86 -5 0 -9 -4 -9 -10 0
-5 4 -10 9 -10 5 0 7 -9 4 -21 -5 -19 -8 -18 -27 12 l-21 33 -7 -44 c-5 -25
-6 -52 -4 -60 2 -9 4 -6 5 6 2 32 31 40 31 9 0 -15 -7 -26 -20 -30 -26 -8 -40
1 -40 26 0 29 -14 23 -28 -13 -11 -31 -12 -31 -32 -13 -19 18 -20 18 -20 -1 0
-16 -2 -17 -11 -4 -9 12 -10 11 -6 -7 7 -31 -8 -88 -21 -85 -7 1 -12 -2 -12
-8 0 -5 -7 -10 -16 -10 -15 0 -15 2 0 25 17 26 22 75 7 75 -6 0 -13 -5 -17
-12 -4 -7 -3 -8 4 -4 7 4 12 4 12 0 0 -9 -61 -64 -71 -64 -4 0 -5 -8 -2 -18 3
-12 -3 -21 -19 -28 -43 -19 -52 -12 -54 36 l-2 45 17 -38 c17 -39 31 -40 31
-3 0 16 -2 18 -9 7 -14 -21 -45 85 -45 154 0 41 5 68 17 87 17 24 17 29 3 51
-9 13 -13 27 -10 30 4 4 1 13 -6 22 -7 8 -14 25 -15 38 -4 31 -44 126 -44 105
-1 -10 -8 -18 -16 -18 -13 0 -13 3 -3 20 7 11 21 20 30 20 10 0 23 9 30 20 7
11 23 20 35 20 13 0 23 4 23 8 0 9 37 30 54 31 4 1 5 -6 2 -14z m4424 8 c0 -5
-12 -17 -27 -27 -14 -11 -24 -15 -21 -10 3 5 8 17 11 27 6 16 37 25 37 10z
m-513 -66 c-8 -7 -17 -19 -20 -27 -3 -10 -6 -7 -6 8 -1 13 7 37 16 55 l18 32
3 -28 c2 -17 -3 -34 -11 -40z m363 -2 c15 -8 38 -27 49 -41 27 -34 47 -107 32
-112 -6 -2 -11 -12 -11 -22 0 -10 -18 -34 -40 -54 -33 -30 -48 -36 -84 -36
-84 0 -153 75 -141 155 l6 40 -27 -30 c-14 -16 -34 -41 -45 -55 -10 -14 -19
-20 -19 -15 0 14 67 94 111 133 60 53 115 65 169 37z m240 -35 c0 -5 -5 -10
-11 -10 -5 0 -7 5 -4 10 3 6 8 10 11 10 2 0 4 -4 4 -10z m-4458 -92 c-6 -6 -7
0 -4 19 5 21 7 23 10 9 2 -10 0 -22 -6 -28z m-667 -41 c36 11 62 -1 29 -14
-10 -3 -26 -15 -37 -26 -18 -18 -18 -20 -1 -85 l19 -67 8 53 c7 41 12 52 27
52 10 0 25 2 32 5 11 4 13 -3 10 -30 -3 -24 0 -36 10 -40 10 -4 13 -15 10 -32
-3 -18 1 -30 13 -39 22 -16 20 -20 -22 -28 -27 -6 -31 -5 -27 11 2 10 -3 38
-11 63 -9 25 -14 33 -12 18 3 -16 1 -28 -4 -28 -4 0 -11 -20 -15 -45 -3 -25
-8 -45 -9 -45 -7 0 -75 73 -75 80 0 4 -7 13 -15 20 -17 14 -19 10 -6 -22 5
-13 12 -35 15 -50 4 -17 13 -28 23 -28 23 0 11 -9 -26 -20 -27 -8 -31 -7 -21
4 15 19 2 66 -19 66 -12 0 -13 2 -3 8 17 11 4 70 -17 75 -10 2 -3 8 19 14 37
11 42 8 78 -43 12 -18 13 -18 8 1 -21 87 -58 132 -98 119 -10 -3 -18 -1 -18 5
0 5 16 15 35 21 26 8 35 17 35 33 1 21 1 21 15 3 13 -17 19 -18 50 -9z m1010
-177 c4 -11 11 -18 16 -15 5 4 9 -2 9 -13 0 -10 -11 -24 -25 -30 -37 -17 -43
-15 -41 12 0 13 6 24 11 23 6 -1 10 8 9 21 -1 27 12 29 21 2z m-778 -132 c-3
-7 -5 -2 -5 12 0 14 2 19 5 13 2 -7 2 -19 0 -25z m33 17 c0 -8 -4 -15 -10 -15
-5 0 -10 7 -10 15 0 8 5 15 10 15 6 0 10 -7 10 -15z m-84 -23 c-4 -11 -13 -23
-21 -26 -15 -6 -9 20 9 40 15 16 19 10 12 -14z m34 14 c0 -8 -4 -18 -10 -21
-5 -3 -10 3 -10 14 0 12 5 21 10 21 6 0 10 -6 10 -14z m-73 -18 c-3 -8 -6 -5
-6 6 -1 11 2 17 5 13 3 -3 4 -12 1 -19z m-44 -18 c3 -11 1 -20 -4 -20 -5 0 -9
9 -9 20 0 11 2 20 4 20 2 0 6 -9 9 -20z m31 5 c3 -8 1 -15 -4 -15 -6 0 -10 7
-10 15 0 8 2 15 4 15 2 0 6 -7 10 -15z m-97 -15 c-3 -11 -1 -20 4 -20 5 0 9 6
9 14 0 8 7 16 15 20 10 4 15 -1 15 -14 0 -11 -3 -19 -7 -18 -5 0 -16 -2 -26
-7 -23 -10 -30 -2 -22 24 8 27 19 28 12 1z m226 -18 c-5 -22 -23 -31 -23 -12
0 10 23 40 27 36 1 -1 0 -12 -4 -24z m-277 -18 c-15 -14 -16 -14 -16 6 0 12 5
18 10 15 6 -3 10 0 11 7 0 10 2 10 6 1 2 -7 -3 -20 -11 -29z m-26 3 c0 -16 -6
-23 -20 -24 -14 -1 -20 4 -20 18 0 11 4 18 9 14 5 -3 12 -1 16 5 10 16 15 12
15 -13z m270 17 c0 -11 -28 -33 -34 -27 -10 10 -7 25 4 18 6 -3 10 -1 10 4 0
6 5 11 10 11 6 0 10 -3 10 -6z m-320 -23 c0 -3 -9 -12 -19 -18 -16 -10 -20 -9
-24 5 -3 12 -5 11 -6 -5 -1 -13 -7 -23 -16 -23 -19 0 -19 5 0 27 14 17 65 28
65 14z m258 -7 c-2 -9 -13 -20 -25 -25 -18 -7 -21 -5 -16 9 12 31 47 44 41 16z
m-56 -24 c-6 -16 -11 -20 -16 -11 -4 6 -2 19 5 27 16 20 21 12 11 -16z m-36
-8 c0 -13 -8 -19 -26 -19 -14 0 -31 -2 -39 -4 -7 -2 -16 3 -18 11 -4 13 -3 13
6 0 9 -13 11 -12 12 5 0 11 3 14 6 8 3 -10 8 -9 20 2 20 20 39 19 39 -3z
m-140 -39 c-7 -7 -26 7 -26 19 0 6 6 6 15 -2 9 -7 13 -15 11 -17z m34 7 c0 -5
-5 -10 -11 -10 -5 0 -7 5 -4 10 3 6 8 10 11 10 2 0 4 -4 4 -10z m197 -12 c-3
-8 -6 -5 -6 6 -1 11 2 17 5 13 3 -3 4 -12 1 -19z m-293 3 c3 -5 -1 -14 -8 -20
-12 -10 -13 -8 -9 8 6 23 9 25 17 12z m230 -9 c3 -5 -1 -9 -9 -9 -8 0 -12 4
-9 9 3 4 7 8 9 8 2 0 6 -4 9 -8z m-64 -30 c0 -9 -5 -10 -19 -3 -10 6 -21 7
-25 4 -3 -3 -6 -1 -6 5 0 7 11 11 25 10 14 -1 25 -8 25 -16z m-133 -29 c-9 -9
-19 -14 -22 -11 -3 3 2 13 11 22 9 9 19 14 22 11 3 -3 -2 -13 -11 -22z"/>
<path d="M785 3020 c3 -5 11 -10 16 -10 6 0 7 5 4 10 -3 6 -11 10 -16 10 -6 0
-7 -4 -4 -10z"/>
<path d="M882 3005 c0 -16 2 -22 5 -12 2 9 2 23 0 30 -3 6 -5 -1 -5 -18z"/>
<path d="M1245 3160 c-3 -5 -1 -10 4 -10 6 0 11 5 11 10 0 6 -2 10 -4 10 -3 0
-8 -4 -11 -10z"/>
<path d="M568 2813 c7 -3 16 -2 19 1 4 3 -2 6 -13 5 -11 0 -14 -3 -6 -6z"/>
<path d="M11566 2072 c-9 -27 3 -54 23 -50 22 5 22 62 -1 66 -9 2 -19 -5 -22
-16z"/>
<path d="M11770 2055 c0 -29 3 -36 18 -33 11 2 17 13 17 33 0 20 -6 31 -17 33
-15 3 -18 -4 -18 -33z"/>
<path d="M2060 1233 c0 -6 5 -15 11 -18 7 -5 6 -12 -4 -23 -30 -35 -29 -68 5
-119 17 -26 32 -49 32 -50 1 0 18 -4 39 -8 25 -5 37 -4 37 4 0 6 -9 11 -21 11
-12 0 -23 8 -26 20 -3 11 -11 20 -18 20 -18 0 -55 48 -55 72 0 10 11 30 25 43
13 14 19 25 13 25 -6 0 -17 8 -24 18 -7 9 -14 12 -14 5z"/>
<path d="M2033 1202 c-7 -4 -9 -13 -4 -21 6 -9 10 -7 14 8 3 12 4 21 4 21 -1
0 -7 -4 -14 -8z"/>
<path d="M2120 1200 c0 -5 7 -10 15 -10 8 0 15 5 15 10 0 6 -7 10 -15 10 -8 0
-15 -4 -15 -10z"/>
<path d="M2080 1129 c0 -5 5 -7 10 -4 6 3 10 8 10 11 0 2 -4 4 -10 4 -5 0 -10
-5 -10 -11z"/>
<path d="M2211 1114 c0 -11 3 -14 6 -6 3 7 2 16 -1 19 -3 4 -6 -2 -5 -13z"/>
<path d="M2250 1070 c0 -5 5 -10 11 -10 5 0 7 5 4 10 -3 6 -8 10 -11 10 -2 0
-4 -4 -4 -10z"/>
<path d="M2255 1030 c-7 -12 2 -30 16 -30 5 0 9 9 9 20 0 21 -15 27 -25 10z"/>
<path d="M2295 1030 c-3 -5 -1 -10 4 -10 6 0 11 5 11 10 0 6 -2 10 -4 10 -3 0
-8 -4 -11 -10z"/>
<path d="M2351 994 c-7 -8 -19 -13 -27 -10 -17 6 -18 -6 -3 -21 8 -8 18 -5 35
10 24 20 31 37 17 37 -5 -1 -14 -8 -22 -16z"/>
<path d="M2145 990 c-8 -13 5 -13 25 0 13 8 13 10 -2 10 -9 0 -20 -4 -23 -10z"/>
<path d="M2111 954 c0 -11 3 -14 6 -6 3 7 2 16 -1 19 -3 4 -6 -2 -5 -13z"/>
<path d="M2276 897 c3 -10 9 -15 12 -12 3 3 0 11 -7 18 -10 9 -11 8 -5 -6z"/>
<path d="M2210 886 c0 -8 -6 -16 -12 -19 -7 -2 -10 -8 -6 -12 4 -4 15 -1 26 7
16 11 17 15 6 26 -11 10 -14 10 -14 -2z"/>
<path d="M2250 880 c0 -5 5 -10 10 -10 6 0 10 5 10 10 0 6 -4 10 -10 10 -5 0
-10 -4 -10 -10z"/>
<path d="M2415 860 c3 -5 8 -10 11 -10 2 0 4 5 4 10 0 6 -5 10 -11 10 -5 0 -7
-4 -4 -10z"/>
<path d="M6340 1240 c0 -5 5 -10 10 -10 6 0 10 5 10 10 0 6 -4 10 -10 10 -5 0
-10 -4 -10 -10z"/>
<path d="M6290 1230 c0 -5 5 -10 10 -10 6 0 10 5 10 10 0 6 -4 10 -10 10 -5 0
-10 -4 -10 -10z"/>
<path d="M6250 1190 c0 -5 7 -10 15 -10 8 0 15 5 15 10 0 6 -7 10 -15 10 -8 0
-15 -4 -15 -10z"/>
<path d="M6331 1169 c-56 -34 -35 -94 31 -87 37 3 61 38 49 71 -12 32 -44 38
-80 16z"/>
<path d="M6240 1140 c0 -5 5 -10 10 -10 6 0 10 5 10 10 0 6 -4 10 -10 10 -5 0
-10 -4 -10 -10z"/>
<path d="M6252 1091 c4 -13 18 -16 19 -4 0 4 -5 9 -11 12 -7 2 -11 -2 -8 -8z"/>
<path d="M6427 1094 c-8 -8 1 -24 14 -24 5 0 9 7 9 15 0 15 -12 20 -23 9z"/>
<path d="M6296 1061 c-4 -7 -5 -15 -2 -18 9 -9 19 4 14 18 -4 11 -6 11 -12 0z"/>
<path d="M6396 1063 c-9 -9 -7 -33 3 -33 12 0 22 28 12 34 -5 3 -11 3 -15 -1z"/>
<path d="M6340 1035 c0 -8 5 -15 10 -15 6 0 10 7 10 15 0 8 -4 15 -10 15 -5 0
-10 -7 -10 -15z"/>
</g>
</svg>
